<svg xmlns="http://www.w3.org/2000/svg" width="900" height="600" viewBox="0 0 900 600">
  <defs>
    <linearGradient id="titlebar" x1="0%" y1="0%" x2="0%" y2="100%">
      <stop offset="0%" style="stop-color:#e8e8e8"/>
      <stop offset="100%" style="stop-color:#d4d4d4"/>
    </linearGradient>
    <linearGradient id="sidebar" x1="0%" y1="0%" x2="0%" y2="100%">
      <stop offset="0%" style="stop-color:#f5f5f5"/>
      <stop offset="100%" style="stop-color:#ebebeb"/>
    </linearGradient>
  </defs>

  <!-- Window frame -->
  <rect width="900" height="600" rx="10" fill="#ffffff"/>
  <rect width="900" height="600" rx="10" fill="none" stroke="#c0c0c0" stroke-width="1"/>

  <!-- Title bar -->
  <rect width="900" height="52" rx="10" fill="url(#titlebar)"/>
  <rect y="42" width="900" height="10" fill="url(#titlebar)"/>

  <!-- Traffic lights -->
  <circle cx="20" cy="26" r="6" fill="#ff5f57"/>
  <circle cx="40" cy="26" r="6" fill="#febc2e"/>
  <circle cx="60" cy="26" r="6" fill="#28c840"/>

  <!-- Sidebar -->
  <rect x="0" y="52" width="220" height="548" fill="url(#sidebar)"/>
  <line x1="220" y1="52" x2="220" y2="600" stroke="#d0d0d0" stroke-width="1"/>

  <!-- Sidebar header -->
  <text x="20" y="80" font-family="SF Pro, -apple-system, system-ui, sans-serif" font-size="13" font-weight="600" fill="#333">OllamaCode</text>

  <!-- New button -->
  <rect x="185" y="65" width="24" height="24" rx="4" fill="#007aff" opacity="0.1"/>
  <text x="197" y="82" font-family="SF Pro" font-size="16" fill="#007aff" text-anchor="middle">+</text>

  <!-- Sidebar section -->
  <text x="20" y="115" font-family="SF Pro" font-size="11" fill="#888" font-weight="500">CONVERSATIONS</text>

  <!-- Session items -->
  <rect x="10" y="125" width="200" height="50" rx="6" fill="#007aff" opacity="0.1"/>
  <text x="20" y="145" font-family="SF Pro" font-size="13" font-weight="500" fill="#333">Code refactoring help</text>
  <rect x="20" y="152" width="50" height="16" rx="4" fill="#007aff" opacity="0.2"/>
  <text x="28" y="163" font-family="SF Pro" font-size="9" fill="#007aff">General</text>
  <text x="150" y="163" font-family="SF Pro" font-size="9" fill="#888">2m ago</text>

  <text x="20" y="200" font-family="SF Pro" font-size="13" font-weight="500" fill="#666">Find TODO comments</text>
  <rect x="20" y="207" width="50" height="16" rx="4" fill="#34c759" opacity="0.2"/>
  <text x="28" y="218" font-family="SF Pro" font-size="9" fill="#34c759">Explorer</text>
  <text x="150" y="218" font-family="SF Pro" font-size="9" fill="#888">1h ago</text>

  <!-- Main content area -->
  <!-- Toolbar -->
  <rect x="220" y="52" width="680" height="44" fill="#fafafa"/>
  <line x1="220" y1="96" x2="900" y2="96" stroke="#e0e0e0" stroke-width="1"/>

  <!-- Window title -->
  <text x="560" y="78" font-family="SF Pro" font-size="14" font-weight="500" fill="#333" text-anchor="middle">General</text>

  <!-- Toolbar items - right side -->
  <!-- Connection status + Model selector -->
  <circle cx="700" cy="74" r="4" fill="#34c759"/>
  <rect x="710" y="62" width="100" height="24" rx="6" fill="#007aff" opacity="0.1"/>
  <text x="720" y="78" font-family="SF Pro" font-size="12" fill="#007aff">qwen3:4b</text>
  <text x="800" y="78" font-family="SF Pro" font-size="10" fill="#007aff">▼</text>

  <!-- Agent button -->
  <rect x="820" y="62" width="30" height="24" rx="6" fill="#f0f0f0"/>
  <text x="835" y="79" font-family="SF Pro" font-size="14" fill="#666" text-anchor="middle">🤖</text>

  <!-- Clear button -->
  <rect x="858" y="62" width="30" height="24" rx="6" fill="#f0f0f0"/>
  <text x="873" y="78" font-family="SF Pro" font-size="12" fill="#666" text-anchor="middle">🗑</text>

  <!-- Chat area - with messages -->
  <g font-family="SF Pro, -apple-system, system-ui, sans-serif">
    <!-- User message -->
    <rect x="450" y="120" width="420" height="50" rx="12" fill="#007aff"/>
    <text x="465" y="150" font-size="13" fill="#ffffff">Find all TODO comments in the project and list them</text>

    <!-- Assistant response -->
    <rect x="240" y="190" width="500" height="200" rx="12" fill="#f0f0f0"/>
    <text x="255" y="215" font-size="13" fill="#333">I'll search for TODO comments in your project.</text>

    <!-- Tool execution block -->
    <rect x="255" y="230" width="470" height="80" rx="8" fill="#ffffff" stroke="#e0e0e0"/>
    <text x="270" y="252" font-size="11" font-weight="600" fill="#9c27b0">🔧 Tool: Grep</text>
    <text x="270" y="272" font-size="11" fill="#666">Pattern: TODO|FIXME</text>
    <text x="270" y="292" font-size="11" fill="#666">Path: .</text>
    <rect x="640" y="240" width="70" height="22" rx="4" fill="#34c759" opacity="0.2"/>
    <text x="658" y="255" font-size="10" fill="#34c759">✓ Done</text>

    <text x="255" y="340" font-size="13" fill="#333">Found 4 TODO comments across 3 files:</text>
    <text x="255" y="360" font-size="12" fill="#666">• src/main.cpp:42 - Add error handling</text>
    <text x="255" y="378" font-size="12" fill="#666">• src/utils.cpp:15 - Optimize function</text>
  </g>

  <!-- Input area -->
  <rect x="220" y="540" width="680" height="60" fill="#ffffff"/>
  <line x1="220" y1="540" x2="900" y2="540" stroke="#e0e0e0" stroke-width="1"/>

  <rect x="240" y="555" width="590" height="35" rx="8" fill="#f5f5f5" stroke="#d0d0d0"/>
  <text x="255" y="578" font-family="SF Pro" font-size="13" fill="#999">Type a message...</text>

  <!-- Send button -->
  <circle cx="860" cy="572" r="16" fill="#007aff"/>
  <text x="860" y="578" font-family="SF Pro" font-size="16" fill="#ffffff" text-anchor="middle">↑</text>
</svg>